<mxfile host="app.diagrams.net" modified="2022-04-27T17:50:37.300Z" agent="5.0 (Windows NT 10.0; Win64; x64) AppleWebKit/537.36 (KHTML, like Gecko) Chrome/100.0.4896.127 Safari/537.36" etag="ToNCcEiMaguTgk_B-QVc" version="17.4.6" type="github">
  <diagram id="eXh087APFA0FxH9GW3ad" name="Page-1">
    <mxGraphModel dx="1038" dy="1650" grid="1" gridSize="10" guides="1" tooltips="1" connect="1" arrows="1" fold="1" page="1" pageScale="1" pageWidth="827" pageHeight="1169" math="0" shadow="0">
      <root>
        <mxCell id="0" />
        <mxCell id="1" parent="0" />
        <mxCell id="yPDIXAnX9h3u-iHD7uKG-1" value="사용자&lt;br&gt;" style="shape=umlActor;verticalLabelPosition=bottom;verticalAlign=top;html=1;outlineConnect=0;" parent="1" vertex="1">
          <mxGeometry x="50" y="-440" width="50" height="80" as="geometry" />
        </mxCell>
        <mxCell id="xYm1JuOZtIgdaOn4Q1WP-2" value="날씨 정보 시스템" style="shape=umlActor;verticalLabelPosition=bottom;verticalAlign=top;html=1;outlineConnect=0;" parent="1" vertex="1">
          <mxGeometry x="750" y="-600" width="50" height="80" as="geometry" />
        </mxCell>
        <mxCell id="xYm1JuOZtIgdaOn4Q1WP-9" value="옷장관리 프로그램" style="swimlane;startSize=0;" parent="1" vertex="1">
          <mxGeometry x="180" y="-734" width="510" height="595" as="geometry" />
        </mxCell>
        <mxCell id="xYm1JuOZtIgdaOn4Q1WP-10" value="로그인을&lt;br&gt;한다" style="ellipse;whiteSpace=wrap;html=1;" parent="xYm1JuOZtIgdaOn4Q1WP-9" vertex="1">
          <mxGeometry x="20" y="265" width="70" height="40" as="geometry" />
        </mxCell>
        <mxCell id="xYm1JuOZtIgdaOn4Q1WP-13" value="회원가입을&lt;br&gt;한다" style="ellipse;whiteSpace=wrap;html=1;" parent="xYm1JuOZtIgdaOn4Q1WP-9" vertex="1">
          <mxGeometry x="20" y="405" width="70" height="40" as="geometry" />
        </mxCell>
        <mxCell id="xYm1JuOZtIgdaOn4Q1WP-27" value="" style="html=1;rounded=0;endArrow=none;endFill=0;entryX=0;entryY=0.5;entryDx=0;entryDy=0;" parent="xYm1JuOZtIgdaOn4Q1WP-9" target="xYm1JuOZtIgdaOn4Q1WP-10" edge="1">
          <mxGeometry width="100" relative="1" as="geometry">
            <mxPoint x="-80" y="354.5" as="sourcePoint" />
            <mxPoint x="20" y="354.5" as="targetPoint" />
          </mxGeometry>
        </mxCell>
        <mxCell id="xYm1JuOZtIgdaOn4Q1WP-28" value="&lt;font style=&quot;font-size: 9px&quot;&gt;&amp;lt;&amp;lt;include&amp;gt;&amp;gt;&lt;/font&gt;" style="text;html=1;strokeColor=none;fillColor=none;align=center;verticalAlign=middle;whiteSpace=wrap;rounded=0;" parent="xYm1JuOZtIgdaOn4Q1WP-9" vertex="1">
          <mxGeometry y="345" width="60" height="30" as="geometry" />
        </mxCell>
        <mxCell id="xYm1JuOZtIgdaOn4Q1WP-29" value="세탁주기를&lt;br&gt;관리한다" style="ellipse;whiteSpace=wrap;html=1;" parent="xYm1JuOZtIgdaOn4Q1WP-9" vertex="1">
          <mxGeometry x="290" y="315" width="70" height="40" as="geometry" />
        </mxCell>
        <mxCell id="xYm1JuOZtIgdaOn4Q1WP-31" value="세탁방법을&lt;br&gt;알려준다" style="ellipse;whiteSpace=wrap;html=1;" parent="xYm1JuOZtIgdaOn4Q1WP-9" vertex="1">
          <mxGeometry x="340" y="425" width="70" height="40" as="geometry" />
        </mxCell>
        <mxCell id="xYm1JuOZtIgdaOn4Q1WP-41" value="옷을&amp;nbsp;&lt;br&gt;추가한다" style="ellipse;whiteSpace=wrap;html=1;" parent="xYm1JuOZtIgdaOn4Q1WP-9" vertex="1">
          <mxGeometry x="79" y="434" width="70" height="40" as="geometry" />
        </mxCell>
        <mxCell id="xYm1JuOZtIgdaOn4Q1WP-57" value="옷을&lt;br&gt;선택 한다" style="ellipse;whiteSpace=wrap;html=1;" parent="xYm1JuOZtIgdaOn4Q1WP-9" vertex="1">
          <mxGeometry x="129" y="265" width="70" height="40" as="geometry" />
        </mxCell>
        <mxCell id="xYm1JuOZtIgdaOn4Q1WP-50" value="선호&amp;nbsp; 조합을&lt;br&gt;저장한다" style="ellipse;whiteSpace=wrap;html=1;" parent="xYm1JuOZtIgdaOn4Q1WP-9" vertex="1">
          <mxGeometry x="129" y="175" width="70" height="40" as="geometry" />
        </mxCell>
        <mxCell id="xYm1JuOZtIgdaOn4Q1WP-47" value="옷장을&amp;nbsp;&lt;br&gt;선택한다" style="ellipse;whiteSpace=wrap;html=1;" parent="xYm1JuOZtIgdaOn4Q1WP-9" vertex="1">
          <mxGeometry x="100" y="105" width="70" height="40" as="geometry" />
        </mxCell>
        <mxCell id="xYm1JuOZtIgdaOn4Q1WP-48" value="옷장을&lt;br&gt;등록한다" style="ellipse;whiteSpace=wrap;html=1;" parent="xYm1JuOZtIgdaOn4Q1WP-9" vertex="1">
          <mxGeometry x="50" y="35" width="70" height="40" as="geometry" />
        </mxCell>
        <mxCell id="xYm1JuOZtIgdaOn4Q1WP-62" value="" style="endArrow=classic;html=1;rounded=0;fontSize=9;exitX=0.5;exitY=1;exitDx=0;exitDy=0;entryX=0.5;entryY=0;entryDx=0;entryDy=0;dashed=1;" parent="xYm1JuOZtIgdaOn4Q1WP-9" source="xYm1JuOZtIgdaOn4Q1WP-10" target="xYm1JuOZtIgdaOn4Q1WP-13" edge="1">
          <mxGeometry width="50" height="50" relative="1" as="geometry">
            <mxPoint x="50" y="355" as="sourcePoint" />
            <mxPoint x="100" y="305" as="targetPoint" />
          </mxGeometry>
        </mxCell>
        <mxCell id="xYm1JuOZtIgdaOn4Q1WP-42" value="옷을&lt;br&gt;삭제한다" style="ellipse;whiteSpace=wrap;html=1;" parent="xYm1JuOZtIgdaOn4Q1WP-9" vertex="1">
          <mxGeometry x="290" y="235" width="70" height="40" as="geometry" />
        </mxCell>
        <mxCell id="xYm1JuOZtIgdaOn4Q1WP-46" value="옷장을&lt;br&gt;삭제한다" style="ellipse;whiteSpace=wrap;html=1;" parent="xYm1JuOZtIgdaOn4Q1WP-9" vertex="1">
          <mxGeometry x="250" y="105" width="70" height="40" as="geometry" />
        </mxCell>
        <mxCell id="xYm1JuOZtIgdaOn4Q1WP-45" value="카테고리를&lt;br&gt;지정한다" style="ellipse;whiteSpace=wrap;html=1;" parent="xYm1JuOZtIgdaOn4Q1WP-9" vertex="1">
          <mxGeometry x="79" y="554" width="70" height="40" as="geometry" />
        </mxCell>
        <mxCell id="xYm1JuOZtIgdaOn4Q1WP-53" value="오늘의 날씨를&lt;br&gt;조회한다" style="ellipse;whiteSpace=wrap;html=1;" parent="xYm1JuOZtIgdaOn4Q1WP-9" vertex="1">
          <mxGeometry x="380" y="105" width="80" height="40" as="geometry" />
        </mxCell>
        <mxCell id="xYm1JuOZtIgdaOn4Q1WP-44" value="입을 옷을 &lt;br&gt;추천한다" style="ellipse;whiteSpace=wrap;html=1;" parent="xYm1JuOZtIgdaOn4Q1WP-9" vertex="1">
          <mxGeometry x="350" y="25" width="70" height="40" as="geometry" />
        </mxCell>
        <mxCell id="xYm1JuOZtIgdaOn4Q1WP-43" value="구매할 옷을 추천한다" style="ellipse;whiteSpace=wrap;html=1;" parent="xYm1JuOZtIgdaOn4Q1WP-9" vertex="1">
          <mxGeometry x="410" y="365" width="70" height="40" as="geometry" />
        </mxCell>
        <mxCell id="xYm1JuOZtIgdaOn4Q1WP-66" value="" style="endArrow=classic;html=1;rounded=0;dashed=1;fontSize=9;entryX=1;entryY=0.5;entryDx=0;entryDy=0;exitX=0;exitY=0.5;exitDx=0;exitDy=0;" parent="xYm1JuOZtIgdaOn4Q1WP-9" source="xYm1JuOZtIgdaOn4Q1WP-57" target="xYm1JuOZtIgdaOn4Q1WP-10" edge="1">
          <mxGeometry width="50" height="50" relative="1" as="geometry">
            <mxPoint x="100" y="275" as="sourcePoint" />
            <mxPoint x="320" y="255" as="targetPoint" />
          </mxGeometry>
        </mxCell>
        <mxCell id="xYm1JuOZtIgdaOn4Q1WP-67" value="&lt;font style=&quot;font-size: 9px&quot;&gt;&amp;lt;&amp;lt;include&amp;gt;&amp;gt;&lt;/font&gt;" style="text;html=1;strokeColor=none;fillColor=none;align=center;verticalAlign=middle;whiteSpace=wrap;rounded=0;" parent="xYm1JuOZtIgdaOn4Q1WP-9" vertex="1">
          <mxGeometry x="83" y="260" width="60" height="30" as="geometry" />
        </mxCell>
        <mxCell id="xYm1JuOZtIgdaOn4Q1WP-70" value="" style="endArrow=classic;html=1;rounded=0;dashed=1;fontSize=9;exitX=0;exitY=0.5;exitDx=0;exitDy=0;entryX=0.5;entryY=0;entryDx=0;entryDy=0;" parent="xYm1JuOZtIgdaOn4Q1WP-9" source="xYm1JuOZtIgdaOn4Q1WP-50" target="xYm1JuOZtIgdaOn4Q1WP-10" edge="1">
          <mxGeometry width="50" height="50" relative="1" as="geometry">
            <mxPoint x="270" y="305" as="sourcePoint" />
            <mxPoint x="320" y="255" as="targetPoint" />
          </mxGeometry>
        </mxCell>
        <mxCell id="xYm1JuOZtIgdaOn4Q1WP-71" value="&lt;font style=&quot;font-size: 9px&quot;&gt;&amp;lt;&amp;lt;include&amp;gt;&amp;gt;&lt;/font&gt;" style="text;html=1;strokeColor=none;fillColor=none;align=center;verticalAlign=middle;whiteSpace=wrap;rounded=0;" parent="xYm1JuOZtIgdaOn4Q1WP-9" vertex="1">
          <mxGeometry x="78" y="196" width="60" height="30" as="geometry" />
        </mxCell>
        <mxCell id="xYm1JuOZtIgdaOn4Q1WP-72" value="" style="endArrow=classic;html=1;rounded=0;dashed=1;fontSize=9;exitX=0;exitY=1;exitDx=0;exitDy=0;entryX=0.5;entryY=0;entryDx=0;entryDy=0;" parent="xYm1JuOZtIgdaOn4Q1WP-9" source="xYm1JuOZtIgdaOn4Q1WP-47" target="xYm1JuOZtIgdaOn4Q1WP-10" edge="1">
          <mxGeometry width="50" height="50" relative="1" as="geometry">
            <mxPoint x="270" y="305" as="sourcePoint" />
            <mxPoint x="320" y="255" as="targetPoint" />
          </mxGeometry>
        </mxCell>
        <mxCell id="xYm1JuOZtIgdaOn4Q1WP-73" value="&lt;font style=&quot;font-size: 9px&quot;&gt;&amp;lt;&amp;lt;include&amp;gt;&amp;gt;&lt;/font&gt;" style="text;html=1;strokeColor=none;fillColor=none;align=center;verticalAlign=middle;whiteSpace=wrap;rounded=0;" parent="xYm1JuOZtIgdaOn4Q1WP-9" vertex="1">
          <mxGeometry x="105" y="145" width="60" height="30" as="geometry" />
        </mxCell>
        <mxCell id="xYm1JuOZtIgdaOn4Q1WP-76" value="&lt;font style=&quot;font-size: 9px&quot;&gt;&amp;lt;&amp;lt;include&amp;gt;&amp;gt;&lt;/font&gt;" style="text;html=1;strokeColor=none;fillColor=none;align=center;verticalAlign=middle;whiteSpace=wrap;rounded=0;" parent="xYm1JuOZtIgdaOn4Q1WP-9" vertex="1">
          <mxGeometry x="20" y="85" width="60" height="30" as="geometry" />
        </mxCell>
        <mxCell id="xYm1JuOZtIgdaOn4Q1WP-77" value="" style="endArrow=classic;html=1;rounded=0;dashed=1;fontSize=9;exitX=0;exitY=0;exitDx=0;exitDy=0;entryX=1;entryY=1;entryDx=0;entryDy=0;" parent="xYm1JuOZtIgdaOn4Q1WP-9" source="xYm1JuOZtIgdaOn4Q1WP-41" target="xYm1JuOZtIgdaOn4Q1WP-10" edge="1">
          <mxGeometry width="50" height="50" relative="1" as="geometry">
            <mxPoint x="270" y="345" as="sourcePoint" />
            <mxPoint x="320" y="295" as="targetPoint" />
          </mxGeometry>
        </mxCell>
        <mxCell id="xYm1JuOZtIgdaOn4Q1WP-78" value="&lt;font style=&quot;font-size: 9px&quot;&gt;&amp;lt;&amp;lt;include&amp;gt;&amp;gt;&lt;/font&gt;" style="text;html=1;strokeColor=none;fillColor=none;align=center;verticalAlign=middle;whiteSpace=wrap;rounded=0;" parent="xYm1JuOZtIgdaOn4Q1WP-9" vertex="1">
          <mxGeometry x="53" y="341" width="60" height="30" as="geometry" />
        </mxCell>
        <mxCell id="xYm1JuOZtIgdaOn4Q1WP-79" value="" style="endArrow=classic;html=1;rounded=0;dashed=1;fontSize=9;exitX=0.5;exitY=0;exitDx=0;exitDy=0;entryX=0.5;entryY=1;entryDx=0;entryDy=0;" parent="xYm1JuOZtIgdaOn4Q1WP-9" source="xYm1JuOZtIgdaOn4Q1WP-45" target="xYm1JuOZtIgdaOn4Q1WP-41" edge="1">
          <mxGeometry width="50" height="50" relative="1" as="geometry">
            <mxPoint x="220" y="424" as="sourcePoint" />
            <mxPoint x="270" y="374" as="targetPoint" />
          </mxGeometry>
        </mxCell>
        <mxCell id="xYm1JuOZtIgdaOn4Q1WP-80" value="&lt;font style=&quot;font-size: 9px&quot;&gt;&amp;lt;&amp;lt;extend&amp;gt;&amp;gt;&lt;/font&gt;" style="text;html=1;strokeColor=none;fillColor=none;align=center;verticalAlign=middle;whiteSpace=wrap;rounded=0;" parent="xYm1JuOZtIgdaOn4Q1WP-9" vertex="1">
          <mxGeometry x="115" y="494" width="60" height="30" as="geometry" />
        </mxCell>
        <mxCell id="xYm1JuOZtIgdaOn4Q1WP-90" value="" style="endArrow=classic;html=1;rounded=0;fontSize=9;entryX=0.5;entryY=0;entryDx=0;entryDy=0;exitX=0.5;exitY=1;exitDx=0;exitDy=0;dashed=1;" parent="xYm1JuOZtIgdaOn4Q1WP-9" source="xYm1JuOZtIgdaOn4Q1WP-44" target="xYm1JuOZtIgdaOn4Q1WP-53" edge="1">
          <mxGeometry width="50" height="50" relative="1" as="geometry">
            <mxPoint x="270" y="275" as="sourcePoint" />
            <mxPoint x="320" y="225" as="targetPoint" />
          </mxGeometry>
        </mxCell>
        <mxCell id="xYm1JuOZtIgdaOn4Q1WP-91" value="&lt;font style=&quot;font-size: 9px&quot;&gt;&amp;lt;&amp;lt;extend&amp;gt;&amp;gt;&lt;/font&gt;" style="text;html=1;strokeColor=none;fillColor=none;align=center;verticalAlign=middle;whiteSpace=wrap;rounded=0;" parent="xYm1JuOZtIgdaOn4Q1WP-9" vertex="1">
          <mxGeometry x="190" y="99" width="60" height="30" as="geometry" />
        </mxCell>
        <mxCell id="xYm1JuOZtIgdaOn4Q1WP-92" value="" style="endArrow=classic;html=1;rounded=0;dashed=1;fontSize=9;entryX=1;entryY=0.5;entryDx=0;entryDy=0;exitX=0;exitY=0.5;exitDx=0;exitDy=0;" parent="xYm1JuOZtIgdaOn4Q1WP-9" source="xYm1JuOZtIgdaOn4Q1WP-46" target="xYm1JuOZtIgdaOn4Q1WP-47" edge="1">
          <mxGeometry width="50" height="50" relative="1" as="geometry">
            <mxPoint x="270" y="195" as="sourcePoint" />
            <mxPoint x="320" y="145" as="targetPoint" />
          </mxGeometry>
        </mxCell>
        <mxCell id="xYm1JuOZtIgdaOn4Q1WP-103" value="" style="endArrow=classic;html=1;rounded=0;fontSize=9;exitX=0;exitY=0;exitDx=0;exitDy=0;dashed=1;entryX=1;entryY=0.5;entryDx=0;entryDy=0;" parent="xYm1JuOZtIgdaOn4Q1WP-9" source="xYm1JuOZtIgdaOn4Q1WP-51" target="xYm1JuOZtIgdaOn4Q1WP-10" edge="1">
          <mxGeometry width="50" height="50" relative="1" as="geometry">
            <mxPoint x="270" y="465" as="sourcePoint" />
            <mxPoint x="80" y="285" as="targetPoint" />
          </mxGeometry>
        </mxCell>
        <mxCell id="xYm1JuOZtIgdaOn4Q1WP-104" value="&lt;font style=&quot;font-size: 9px&quot;&gt;&amp;lt;&amp;lt;include&amp;gt;&amp;gt;&lt;/font&gt;" style="text;html=1;strokeColor=none;fillColor=none;align=center;verticalAlign=middle;whiteSpace=wrap;rounded=0;" parent="xYm1JuOZtIgdaOn4Q1WP-9" vertex="1">
          <mxGeometry x="143" y="315" width="60" height="30" as="geometry" />
        </mxCell>
        <mxCell id="xYm1JuOZtIgdaOn4Q1WP-105" value="" style="endArrow=classic;html=1;rounded=0;dashed=1;fontSize=9;entryX=1;entryY=0.5;entryDx=0;entryDy=0;exitX=0;exitY=0.5;exitDx=0;exitDy=0;" parent="xYm1JuOZtIgdaOn4Q1WP-9" source="xYm1JuOZtIgdaOn4Q1WP-42" target="xYm1JuOZtIgdaOn4Q1WP-57" edge="1">
          <mxGeometry width="50" height="50" relative="1" as="geometry">
            <mxPoint x="270" y="395" as="sourcePoint" />
            <mxPoint x="320" y="345" as="targetPoint" />
          </mxGeometry>
        </mxCell>
        <mxCell id="xYm1JuOZtIgdaOn4Q1WP-109" value="" style="endArrow=classic;html=1;rounded=0;dashed=1;fontSize=9;entryX=0.963;entryY=0.85;entryDx=0;entryDy=0;entryPerimeter=0;exitX=0.023;exitY=0.68;exitDx=0;exitDy=0;exitPerimeter=0;" parent="xYm1JuOZtIgdaOn4Q1WP-9" source="xYm1JuOZtIgdaOn4Q1WP-29" target="xYm1JuOZtIgdaOn4Q1WP-57" edge="1">
          <mxGeometry width="50" height="50" relative="1" as="geometry">
            <mxPoint x="270" y="395" as="sourcePoint" />
            <mxPoint x="320" y="345" as="targetPoint" />
          </mxGeometry>
        </mxCell>
        <mxCell id="xYm1JuOZtIgdaOn4Q1WP-110" value="&lt;font style=&quot;font-size: 9px&quot;&gt;&amp;lt;&amp;lt;extend&amp;gt;&amp;gt;&lt;/font&gt;" style="text;html=1;strokeColor=none;fillColor=none;align=center;verticalAlign=middle;whiteSpace=wrap;rounded=0;" parent="xYm1JuOZtIgdaOn4Q1WP-9" vertex="1">
          <mxGeometry x="231" y="298" width="60" height="30" as="geometry" />
        </mxCell>
        <mxCell id="LRz-mq-irpEqSZUiorhD-1" value="로그 아웃을&lt;br&gt;한다" style="ellipse;whiteSpace=wrap;html=1;" vertex="1" parent="xYm1JuOZtIgdaOn4Q1WP-9">
          <mxGeometry x="226" y="175" width="70" height="40" as="geometry" />
        </mxCell>
        <mxCell id="LRz-mq-irpEqSZUiorhD-10" value="&lt;font style=&quot;font-size: 9px&quot;&gt;&amp;lt;&amp;lt;include&amp;gt;&amp;gt;&lt;/font&gt;" style="html=1;verticalAlign=bottom;endArrow=classicThin;dashed=1;endSize=8;rounded=0;exitX=0.034;exitY=0.89;exitDx=0;exitDy=0;exitPerimeter=0;entryX=0.703;entryY=0.18;entryDx=0;entryDy=0;entryPerimeter=0;endFill=1;" edge="1" parent="xYm1JuOZtIgdaOn4Q1WP-9" source="LRz-mq-irpEqSZUiorhD-1" target="xYm1JuOZtIgdaOn4Q1WP-10">
          <mxGeometry relative="1" as="geometry">
            <mxPoint x="235" y="229.5" as="sourcePoint" />
            <mxPoint x="155" y="229.5" as="targetPoint" />
          </mxGeometry>
        </mxCell>
        <mxCell id="LRz-mq-irpEqSZUiorhD-12" value="카테고리를&lt;br&gt;추가한다" style="ellipse;whiteSpace=wrap;html=1;" vertex="1" parent="xYm1JuOZtIgdaOn4Q1WP-9">
          <mxGeometry x="149" y="454" width="70" height="40" as="geometry" />
        </mxCell>
        <mxCell id="LRz-mq-irpEqSZUiorhD-14" value="카테고리를&lt;br&gt;삭제한다" style="ellipse;whiteSpace=wrap;html=1;" vertex="1" parent="xYm1JuOZtIgdaOn4Q1WP-9">
          <mxGeometry x="234" y="425" width="70" height="40" as="geometry" />
        </mxCell>
        <mxCell id="LRz-mq-irpEqSZUiorhD-15" value="카테고리 목록을&lt;br&gt;보여준다" style="ellipse;whiteSpace=wrap;html=1;" vertex="1" parent="xYm1JuOZtIgdaOn4Q1WP-9">
          <mxGeometry x="397.5" y="534" width="95" height="58" as="geometry" />
        </mxCell>
        <mxCell id="LRz-mq-irpEqSZUiorhD-16" value="&lt;font style=&quot;font-size: 9px&quot;&gt;&amp;lt;&amp;lt;include&amp;gt;&amp;gt;&lt;/font&gt;" style="html=1;verticalAlign=bottom;endArrow=open;dashed=1;endSize=8;rounded=0;fontSize=9;entryX=-0.07;entryY=1.26;entryDx=0;entryDy=0;entryPerimeter=0;exitX=0;exitY=0;exitDx=0;exitDy=0;" edge="1" parent="xYm1JuOZtIgdaOn4Q1WP-9" source="LRz-mq-irpEqSZUiorhD-12" target="xYm1JuOZtIgdaOn4Q1WP-67">
          <mxGeometry relative="1" as="geometry">
            <mxPoint x="270" y="405" as="sourcePoint" />
            <mxPoint x="190" y="405" as="targetPoint" />
          </mxGeometry>
        </mxCell>
        <mxCell id="LRz-mq-irpEqSZUiorhD-17" value="&amp;lt;&amp;lt;include&amp;gt;&amp;gt;" style="html=1;verticalAlign=bottom;endArrow=open;dashed=1;endSize=8;rounded=0;fontSize=9;exitX=0;exitY=0;exitDx=0;exitDy=0;entryX=-0.07;entryY=1.313;entryDx=0;entryDy=0;entryPerimeter=0;" edge="1" parent="xYm1JuOZtIgdaOn4Q1WP-9" source="LRz-mq-irpEqSZUiorhD-14" target="xYm1JuOZtIgdaOn4Q1WP-67">
          <mxGeometry relative="1" as="geometry">
            <mxPoint x="270" y="405" as="sourcePoint" />
            <mxPoint x="190" y="405" as="targetPoint" />
          </mxGeometry>
        </mxCell>
        <mxCell id="xYm1JuOZtIgdaOn4Q1WP-51" value="옷을&amp;nbsp;&lt;br&gt;검색한다" style="ellipse;whiteSpace=wrap;html=1;" parent="xYm1JuOZtIgdaOn4Q1WP-9" vertex="1">
          <mxGeometry x="190" y="345" width="70" height="40" as="geometry" />
        </mxCell>
        <mxCell id="LRz-mq-irpEqSZUiorhD-19" value="카테고리를&lt;br&gt;선택한다" style="ellipse;whiteSpace=wrap;html=1;" vertex="1" parent="xYm1JuOZtIgdaOn4Q1WP-9">
          <mxGeometry x="234" y="494" width="95" height="58" as="geometry" />
        </mxCell>
        <mxCell id="LRz-mq-irpEqSZUiorhD-22" value="&amp;lt;&amp;lt;extend&amp;gt;&amp;gt;" style="html=1;verticalAlign=bottom;endArrow=open;dashed=1;endSize=8;rounded=0;fontSize=9;exitX=0.051;exitY=0.295;exitDx=0;exitDy=0;exitPerimeter=0;entryX=1;entryY=1;entryDx=0;entryDy=0;" edge="1" parent="xYm1JuOZtIgdaOn4Q1WP-9" source="xYm1JuOZtIgdaOn4Q1WP-31" target="xYm1JuOZtIgdaOn4Q1WP-51">
          <mxGeometry relative="1" as="geometry">
            <mxPoint x="270" y="434" as="sourcePoint" />
            <mxPoint x="190" y="434" as="targetPoint" />
          </mxGeometry>
        </mxCell>
        <mxCell id="xYm1JuOZtIgdaOn4Q1WP-75" value="" style="endArrow=classic;html=1;rounded=0;dashed=1;fontSize=9;exitX=0.5;exitY=1;exitDx=0;exitDy=0;" parent="1" source="xYm1JuOZtIgdaOn4Q1WP-48" edge="1">
          <mxGeometry width="50" height="50" relative="1" as="geometry">
            <mxPoint x="450" y="-440" as="sourcePoint" />
            <mxPoint x="240" y="-480" as="targetPoint" />
          </mxGeometry>
        </mxCell>
        <mxCell id="xYm1JuOZtIgdaOn4Q1WP-87" style="rounded=0;orthogonalLoop=1;jettySize=auto;html=1;exitX=1;exitY=1;exitDx=0;exitDy=0;entryX=0.5;entryY=0.5;entryDx=0;entryDy=0;entryPerimeter=0;fontSize=9;endArrow=none;endFill=0;" parent="1" source="xYm1JuOZtIgdaOn4Q1WP-53" target="xYm1JuOZtIgdaOn4Q1WP-2" edge="1">
          <mxGeometry relative="1" as="geometry" />
        </mxCell>
        <mxCell id="xYm1JuOZtIgdaOn4Q1WP-93" value="&lt;font style=&quot;font-size: 9px&quot;&gt;&amp;lt;&amp;lt;extend&amp;gt;&amp;gt;&lt;/font&gt;" style="text;html=1;strokeColor=none;fillColor=none;align=center;verticalAlign=middle;whiteSpace=wrap;rounded=0;" parent="1" vertex="1">
          <mxGeometry x="600" y="-670" width="60" height="30" as="geometry" />
        </mxCell>
        <mxCell id="xYm1JuOZtIgdaOn4Q1WP-108" value="&lt;font style=&quot;font-size: 9px&quot;&gt;&amp;lt;&amp;lt;extend&amp;gt;&amp;gt;&lt;/font&gt;" style="text;html=1;strokeColor=none;fillColor=none;align=center;verticalAlign=middle;whiteSpace=wrap;rounded=0;" parent="1" vertex="1">
          <mxGeometry x="399" y="-502" width="60" height="30" as="geometry" />
        </mxCell>
        <mxCell id="xYm1JuOZtIgdaOn4Q1WP-113" value="구매 추천 시스템" style="shape=umlActor;verticalLabelPosition=bottom;verticalAlign=top;html=1;outlineConnect=0;" parent="1" vertex="1">
          <mxGeometry x="750" y="-390" width="50" height="80" as="geometry" />
        </mxCell>
        <mxCell id="xYm1JuOZtIgdaOn4Q1WP-114" value="" style="endArrow=none;html=1;rounded=0;fontSize=9;entryX=1;entryY=0.5;entryDx=0;entryDy=0;exitX=0;exitY=0.3333333333333333;exitDx=0;exitDy=0;exitPerimeter=0;" parent="1" source="xYm1JuOZtIgdaOn4Q1WP-113" target="xYm1JuOZtIgdaOn4Q1WP-43" edge="1">
          <mxGeometry width="50" height="50" relative="1" as="geometry">
            <mxPoint x="450" y="-370" as="sourcePoint" />
            <mxPoint x="500" y="-420" as="targetPoint" />
          </mxGeometry>
        </mxCell>
        <mxCell id="LRz-mq-irpEqSZUiorhD-20" value="&amp;lt;&amp;lt;include&amp;gt;&amp;gt;" style="html=1;verticalAlign=bottom;endArrow=open;dashed=1;endSize=8;rounded=0;fontSize=9;exitX=0.286;exitY=0.097;exitDx=0;exitDy=0;exitPerimeter=0;" edge="1" parent="1" source="LRz-mq-irpEqSZUiorhD-19">
          <mxGeometry relative="1" as="geometry">
            <mxPoint x="450" y="-250" as="sourcePoint" />
            <mxPoint x="260" y="-430" as="targetPoint" />
          </mxGeometry>
        </mxCell>
        <mxCell id="LRz-mq-irpEqSZUiorhD-21" value="&amp;lt;&amp;lt;include&amp;gt;&amp;gt;" style="html=1;verticalAlign=bottom;endArrow=open;dashed=1;endSize=8;rounded=0;fontSize=9;exitX=0;exitY=0.5;exitDx=0;exitDy=0;" edge="1" parent="1" source="LRz-mq-irpEqSZUiorhD-15">
          <mxGeometry relative="1" as="geometry">
            <mxPoint x="450" y="-250" as="sourcePoint" />
            <mxPoint x="500" y="-200" as="targetPoint" />
          </mxGeometry>
        </mxCell>
      </root>
    </mxGraphModel>
  </diagram>
</mxfile>
